<mxfile host="app.diagrams.net" modified="2024-02-11T01:57:16.628Z" agent="Mozilla/5.0 (Windows NT 10.0; Win64; x64) AppleWebKit/537.36 (KHTML, like Gecko) Chrome/121.0.0.0 Safari/537.36" etag="cXEPMSqIpIRzY8c-zV0d" version="23.1.1" type="device">
  <diagram name="Page-1" id="d0b8Yxc275Se47VgxvkT">
    <mxGraphModel dx="1050" dy="557" grid="1" gridSize="10" guides="1" tooltips="1" connect="1" arrows="1" fold="1" page="1" pageScale="1" pageWidth="850" pageHeight="1100" math="0" shadow="0">
      <root>
        <mxCell id="0" />
        <mxCell id="1" parent="0" />
        <mxCell id="zSCk0jBEO2C3aZv7PhDW-1" value="Query" style="rounded=1;whiteSpace=wrap;html=1;fillColor=#dae8fc;strokeColor=#6c8ebf;" vertex="1" parent="1">
          <mxGeometry x="50" y="120" width="120" height="60" as="geometry" />
        </mxCell>
        <mxCell id="zSCk0jBEO2C3aZv7PhDW-2" value="LLM" style="rounded=1;whiteSpace=wrap;html=1;fillColor=#ffe6cc;strokeColor=#d79b00;" vertex="1" parent="1">
          <mxGeometry x="290" y="120" width="120" height="60" as="geometry" />
        </mxCell>
        <mxCell id="zSCk0jBEO2C3aZv7PhDW-3" value="Response" style="rounded=1;whiteSpace=wrap;html=1;fillColor=#f8cecc;strokeColor=#b85450;" vertex="1" parent="1">
          <mxGeometry x="530" y="120" width="120" height="60" as="geometry" />
        </mxCell>
        <mxCell id="zSCk0jBEO2C3aZv7PhDW-4" value="&lt;font style=&quot;font-size: 16px;&quot;&gt;Rollout:&lt;/font&gt;" style="text;html=1;strokeColor=none;fillColor=none;align=center;verticalAlign=middle;whiteSpace=wrap;rounded=0;" vertex="1" parent="1">
          <mxGeometry x="70" y="50" width="60" height="30" as="geometry" />
        </mxCell>
        <mxCell id="zSCk0jBEO2C3aZv7PhDW-5" value="Query+Response" style="rounded=1;whiteSpace=wrap;html=1;fillColor=#e1d5e7;strokeColor=#9673a6;" vertex="1" parent="1">
          <mxGeometry x="40" y="290" width="120" height="60" as="geometry" />
        </mxCell>
        <mxCell id="zSCk0jBEO2C3aZv7PhDW-6" value="Reward Mode" style="rounded=1;whiteSpace=wrap;html=1;fillColor=#fff2cc;strokeColor=#d6b656;" vertex="1" parent="1">
          <mxGeometry x="280" y="290" width="120" height="60" as="geometry" />
        </mxCell>
        <mxCell id="zSCk0jBEO2C3aZv7PhDW-7" value="Reward" style="rounded=1;whiteSpace=wrap;html=1;fillColor=#dae8fc;strokeColor=#6c8ebf;" vertex="1" parent="1">
          <mxGeometry x="530" y="290" width="120" height="60" as="geometry" />
        </mxCell>
        <mxCell id="zSCk0jBEO2C3aZv7PhDW-8" value="&lt;font style=&quot;font-size: 16px;&quot;&gt;Evaluation:&lt;/font&gt;" style="text;html=1;strokeColor=none;fillColor=none;align=center;verticalAlign=middle;whiteSpace=wrap;rounded=0;" vertex="1" parent="1">
          <mxGeometry x="70" y="220" width="60" height="30" as="geometry" />
        </mxCell>
        <mxCell id="zSCk0jBEO2C3aZv7PhDW-9" value="Query+Response" style="rounded=1;whiteSpace=wrap;html=1;fillColor=#b1ddf0;strokeColor=#10739e;" vertex="1" parent="1">
          <mxGeometry x="40" y="460" width="120" height="60" as="geometry" />
        </mxCell>
        <mxCell id="zSCk0jBEO2C3aZv7PhDW-10" value="PPO" style="rounded=1;whiteSpace=wrap;html=1;fillColor=#ffcccc;strokeColor=#36393d;" vertex="1" parent="1">
          <mxGeometry x="690" y="460" width="120" height="60" as="geometry" />
        </mxCell>
        <mxCell id="zSCk0jBEO2C3aZv7PhDW-11" value="LM" style="rounded=1;whiteSpace=wrap;html=1;fillColor=#f8cecc;gradientColor=#ea6b66;strokeColor=#b85450;" vertex="1" parent="1">
          <mxGeometry x="240" y="400" width="60" height="60" as="geometry" />
        </mxCell>
        <mxCell id="zSCk0jBEO2C3aZv7PhDW-12" value="LM" style="rounded=1;whiteSpace=wrap;html=1;fillColor=#fff2cc;gradientColor=#ffd966;strokeColor=#d6b656;" vertex="1" parent="1">
          <mxGeometry x="240" y="500" width="60" height="60" as="geometry" />
        </mxCell>
        <mxCell id="zSCk0jBEO2C3aZv7PhDW-13" value="logprobs" style="rounded=1;whiteSpace=wrap;html=1;fillColor=#f5f5f5;gradientColor=#b3b3b3;strokeColor=#666666;" vertex="1" parent="1">
          <mxGeometry x="365" y="400" width="60" height="60" as="geometry" />
        </mxCell>
        <mxCell id="zSCk0jBEO2C3aZv7PhDW-24" value="" style="edgeStyle=orthogonalEdgeStyle;rounded=0;orthogonalLoop=1;jettySize=auto;html=1;" edge="1" parent="1" source="zSCk0jBEO2C3aZv7PhDW-14" target="zSCk0jBEO2C3aZv7PhDW-13">
          <mxGeometry relative="1" as="geometry" />
        </mxCell>
        <mxCell id="zSCk0jBEO2C3aZv7PhDW-14" value="logprobs" style="rounded=1;whiteSpace=wrap;html=1;fillColor=#dae8fc;gradientColor=#7ea6e0;strokeColor=#6c8ebf;" vertex="1" parent="1">
          <mxGeometry x="380" y="500" width="60" height="60" as="geometry" />
        </mxCell>
        <mxCell id="zSCk0jBEO2C3aZv7PhDW-15" value="Reward" style="rounded=1;whiteSpace=wrap;html=1;fillColor=#ffcd28;gradientColor=#ffa500;strokeColor=#d79b00;" vertex="1" parent="1">
          <mxGeometry x="530" y="400" width="60" height="60" as="geometry" />
        </mxCell>
        <mxCell id="zSCk0jBEO2C3aZv7PhDW-16" value="KL-Dev" style="rounded=1;whiteSpace=wrap;html=1;fillColor=#cce5ff;strokeColor=#36393d;" vertex="1" parent="1">
          <mxGeometry x="530" y="500" width="60" height="60" as="geometry" />
        </mxCell>
        <mxCell id="zSCk0jBEO2C3aZv7PhDW-17" value="" style="edgeStyle=segmentEdgeStyle;endArrow=classic;html=1;curved=0;rounded=0;endSize=8;startSize=8;exitX=0.56;exitY=-0.09;exitDx=0;exitDy=0;exitPerimeter=0;" edge="1" parent="1" source="zSCk0jBEO2C3aZv7PhDW-10">
          <mxGeometry width="50" height="50" relative="1" as="geometry">
            <mxPoint x="760" y="380" as="sourcePoint" />
            <mxPoint x="270" y="390" as="targetPoint" />
            <Array as="points">
              <mxPoint x="757" y="370" />
              <mxPoint x="270" y="370" />
            </Array>
          </mxGeometry>
        </mxCell>
        <mxCell id="zSCk0jBEO2C3aZv7PhDW-18" value="" style="shape=partialRectangle;whiteSpace=wrap;html=1;bottom=1;right=1;left=1;top=0;fillColor=none;routingCenterX=-0.5;flipV=0;flipH=1;direction=south;" vertex="1" parent="1">
          <mxGeometry x="610" y="420" width="60" height="120" as="geometry" />
        </mxCell>
        <mxCell id="zSCk0jBEO2C3aZv7PhDW-19" value="" style="shape=partialRectangle;whiteSpace=wrap;html=1;bottom=1;right=1;left=1;top=0;fillColor=none;routingCenterX=-0.5;flipV=0;flipH=1;direction=south;" vertex="1" parent="1">
          <mxGeometry x="450" y="410" width="60" height="120" as="geometry" />
        </mxCell>
        <mxCell id="zSCk0jBEO2C3aZv7PhDW-20" value="" style="endArrow=classic;html=1;rounded=0;" edge="1" parent="1">
          <mxGeometry width="50" height="50" relative="1" as="geometry">
            <mxPoint x="310" y="440" as="sourcePoint" />
            <mxPoint x="360" y="440" as="targetPoint" />
          </mxGeometry>
        </mxCell>
        <mxCell id="zSCk0jBEO2C3aZv7PhDW-21" value="" style="endArrow=classic;html=1;rounded=0;" edge="1" parent="1">
          <mxGeometry width="50" height="50" relative="1" as="geometry">
            <mxPoint x="310" y="529" as="sourcePoint" />
            <mxPoint x="360" y="529" as="targetPoint" />
            <Array as="points" />
          </mxGeometry>
        </mxCell>
        <mxCell id="zSCk0jBEO2C3aZv7PhDW-22" value="Optimization:" style="text;html=1;strokeColor=none;fillColor=none;align=center;verticalAlign=middle;whiteSpace=wrap;rounded=0;fontSize=16;" vertex="1" parent="1">
          <mxGeometry x="25" y="390" width="150" height="40" as="geometry" />
        </mxCell>
        <mxCell id="zSCk0jBEO2C3aZv7PhDW-23" value="Active Model" style="text;html=1;strokeColor=none;fillColor=none;align=center;verticalAlign=middle;whiteSpace=wrap;rounded=0;" vertex="1" parent="1">
          <mxGeometry x="230" y="465" width="60" height="30" as="geometry" />
        </mxCell>
        <mxCell id="zSCk0jBEO2C3aZv7PhDW-25" value="Reference Model" style="text;html=1;strokeColor=none;fillColor=none;align=center;verticalAlign=middle;whiteSpace=wrap;rounded=0;" vertex="1" parent="1">
          <mxGeometry x="240" y="570" width="60" height="30" as="geometry" />
        </mxCell>
        <mxCell id="zSCk0jBEO2C3aZv7PhDW-26" value="&quot;The movie is really great" style="text;html=1;strokeColor=none;fillColor=none;align=center;verticalAlign=middle;whiteSpace=wrap;rounded=0;" vertex="1" parent="1">
          <mxGeometry x="70" y="535" width="60" height="30" as="geometry" />
        </mxCell>
        <mxCell id="zSCk0jBEO2C3aZv7PhDW-27" value="Policy gradient" style="text;html=1;strokeColor=none;fillColor=none;align=center;verticalAlign=middle;whiteSpace=wrap;rounded=0;" vertex="1" parent="1">
          <mxGeometry x="425" y="370" width="60" height="30" as="geometry" />
        </mxCell>
        <mxCell id="zSCk0jBEO2C3aZv7PhDW-28" value="optimize model" style="text;html=1;strokeColor=none;fillColor=none;align=center;verticalAlign=middle;whiteSpace=wrap;rounded=0;" vertex="1" parent="1">
          <mxGeometry x="620" y="370" width="60" height="30" as="geometry" />
        </mxCell>
        <mxCell id="zSCk0jBEO2C3aZv7PhDW-29" value="&quot;The movie is great&quot;" style="text;html=1;strokeColor=none;fillColor=none;align=center;verticalAlign=middle;whiteSpace=wrap;rounded=0;" vertex="1" parent="1">
          <mxGeometry x="80" y="190" width="60" height="30" as="geometry" />
        </mxCell>
        <mxCell id="zSCk0jBEO2C3aZv7PhDW-31" value="GPT2" style="text;html=1;strokeColor=none;fillColor=none;align=center;verticalAlign=middle;whiteSpace=wrap;rounded=0;" vertex="1" parent="1">
          <mxGeometry x="310" y="190" width="60" height="30" as="geometry" />
        </mxCell>
        <mxCell id="zSCk0jBEO2C3aZv7PhDW-32" value="&quot;Really great!&quot;" style="text;html=1;strokeColor=none;fillColor=none;align=center;verticalAlign=middle;whiteSpace=wrap;rounded=0;" vertex="1" parent="1">
          <mxGeometry x="560" y="190" width="60" height="30" as="geometry" />
        </mxCell>
        <mxCell id="zSCk0jBEO2C3aZv7PhDW-33" value="&quot;The movie is really great&quot;" style="text;html=1;strokeColor=none;fillColor=none;align=center;verticalAlign=middle;whiteSpace=wrap;rounded=0;" vertex="1" parent="1">
          <mxGeometry x="140" y="370" width="60" height="30" as="geometry" />
        </mxCell>
        <mxCell id="zSCk0jBEO2C3aZv7PhDW-35" value="Classiifier/Rule/Human" style="text;html=1;strokeColor=none;fillColor=none;align=center;verticalAlign=middle;whiteSpace=wrap;rounded=0;" vertex="1" parent="1">
          <mxGeometry x="340" y="250" width="60" height="30" as="geometry" />
        </mxCell>
        <mxCell id="zSCk0jBEO2C3aZv7PhDW-36" value="1.0" style="text;html=1;strokeColor=none;fillColor=none;align=center;verticalAlign=middle;whiteSpace=wrap;rounded=0;" vertex="1" parent="1">
          <mxGeometry x="590" y="240" width="60" height="30" as="geometry" />
        </mxCell>
      </root>
    </mxGraphModel>
  </diagram>
</mxfile>
